<svg id="visual" viewBox="0 0 960 540" width="960" height="540" xmlns="http://www.w3.org/2000/svg" xmlns:xlink="http://www.w3.org/1999/xlink" version="1.1"><g stroke-width="1" stroke-linejoin="bevel"><path d="M460.7 293L506.3 333L553.3 293Z" fill="#003b46" stroke="#003b46"></path><path d="M553.3 293L506.3 177L460.7 293Z" fill="#002c39" stroke="#002c39"></path><path d="M506.3 177L447.7 191L460.7 293Z" fill="#003b46" stroke="#003b46"></path><path d="M288 254L392.7 344L460.7 293Z" fill="#041e2b" stroke="#041e2b"></path><path d="M460.7 293L392.7 344L506.3 333Z" fill="#2f8856" stroke="#2f8856"></path><path d="M641 394L669 277L553.3 293Z" fill="#4e954c" stroke="#4e954c"></path><path d="M553.3 293L676 167L506.3 177Z" fill="#002c39" stroke="#002c39"></path><path d="M392.7 344L451.7 444L506.3 333Z" fill="#003b46" stroke="#003b46"></path><path d="M506.3 333L641 394L553.3 293Z" fill="#003b46" stroke="#003b46"></path><path d="M451.7 444L530.3 455L506.3 333Z" fill="#005a58" stroke="#005a58"></path><path d="M530.3 455L641 394L506.3 333Z" fill="#70a240" stroke="#70a240"></path><path d="M624 81L528.3 100L506.3 177Z" fill="#2f8856" stroke="#2f8856"></path><path d="M506.3 177L459.7 76L447.7 191Z" fill="#4e954c" stroke="#4e954c"></path><path d="M669 277L676 167L553.3 293Z" fill="#4e954c" stroke="#4e954c"></path><path d="M528.3 100L459.7 76L506.3 177Z" fill="#0e795b" stroke="#0e795b"></path><path d="M447.7 191L288 254L460.7 293Z" fill="#041e2b" stroke="#041e2b"></path><path d="M293 183L288 254L447.7 191Z" fill="#0e795b" stroke="#0e795b"></path><path d="M392.7 344L315 450L451.7 444Z" fill="#003b46" stroke="#003b46"></path><path d="M724.7 425L713.7 366L641 394Z" fill="#004a50" stroke="#004a50"></path><path d="M641 394L713.7 366L669 277Z" fill="#002c39" stroke="#002c39"></path><path d="M669 277L776.7 195L676 167Z" fill="#4e954c" stroke="#4e954c"></path><path d="M288 254L298 394L392.7 344Z" fill="#0e795b" stroke="#0e795b"></path><path d="M676 167L624 81L506.3 177Z" fill="#041e2b" stroke="#041e2b"></path><path d="M528.3 100L529.3 0L459.7 76Z" fill="#4e954c" stroke="#4e954c"></path><path d="M349 102L293 183L447.7 191Z" fill="#0e795b" stroke="#0e795b"></path><path d="M530.3 455L639 485L641 394Z" fill="#70a240" stroke="#70a240"></path><path d="M601 540L639 485L530.3 455Z" fill="#004a50" stroke="#004a50"></path><path d="M459.7 76L349 102L447.7 191Z" fill="#0e795b" stroke="#0e795b"></path><path d="M298 394L315 450L392.7 344Z" fill="#006a5c" stroke="#006a5c"></path><path d="M451.7 444L512.3 540L530.3 455Z" fill="#041e2b" stroke="#041e2b"></path><path d="M713.7 366L760.7 286L669 277Z" fill="#00101c" stroke="#00101c"></path><path d="M676 167L733.7 89L624 81Z" fill="#003b46" stroke="#003b46"></path><path d="M418.7 540L512.3 540L451.7 444Z" fill="#006a5c" stroke="#006a5c"></path><path d="M639 485L724.7 425L641 394Z" fill="#005a58" stroke="#005a58"></path><path d="M713.7 366L877.3 382L760.7 286Z" fill="#2f8856" stroke="#2f8856"></path><path d="M355 540L418.7 540L451.7 444Z" fill="#002c39" stroke="#002c39"></path><path d="M512.3 540L601 540L530.3 455Z" fill="#003b46" stroke="#003b46"></path><path d="M639 485L730.7 540L724.7 425Z" fill="#00101c" stroke="#00101c"></path><path d="M760.7 286L776.7 195L669 277Z" fill="#4e954c" stroke="#4e954c"></path><path d="M636 0L529.3 0L624 81Z" fill="#041e2b" stroke="#041e2b"></path><path d="M624 81L529.3 0L528.3 100Z" fill="#003b46" stroke="#003b46"></path><path d="M459.7 76L413.7 0L349 102Z" fill="#2f8856" stroke="#2f8856"></path><path d="M211.3 178L224.3 235L293 183Z" fill="#4e954c" stroke="#4e954c"></path><path d="M293 183L224.3 235L288 254Z" fill="#2f8856" stroke="#2f8856"></path><path d="M288 254L173.3 392L298 394Z" fill="#041e2b" stroke="#041e2b"></path><path d="M298 394L194.3 474L315 450Z" fill="#005a58" stroke="#005a58"></path><path d="M315 450L355 540L451.7 444Z" fill="#4e954c" stroke="#4e954c"></path><path d="M776.7 195L733.7 89L676 167Z" fill="#0e795b" stroke="#0e795b"></path><path d="M529.3 0L413.7 0L459.7 76Z" fill="#005a58" stroke="#005a58"></path><path d="M185.3 95L211.3 178L293 183Z" fill="#004a50" stroke="#004a50"></path><path d="M733.7 89L636 0L624 81Z" fill="#005a58" stroke="#005a58"></path><path d="M185.3 95L293 183L349 102Z" fill="#006a5c" stroke="#006a5c"></path><path d="M413.7 0L330 0L349 102Z" fill="#00101c" stroke="#00101c"></path><path d="M601 540L730.7 540L639 485Z" fill="#2f8856" stroke="#2f8856"></path><path d="M877.3 382L845.3 244L760.7 286Z" fill="#002c39" stroke="#002c39"></path><path d="M760.7 286L845.3 244L776.7 195Z" fill="#006a5c" stroke="#006a5c"></path><path d="M877.3 382L713.7 366L724.7 425Z" fill="#004a50" stroke="#004a50"></path><path d="M776.7 195L835.3 101L733.7 89Z" fill="#2f8856" stroke="#2f8856"></path><path d="M131.7 322L173.3 392L224.3 235Z" fill="#0e795b" stroke="#0e795b"></path><path d="M224.3 235L173.3 392L288 254Z" fill="#005a58" stroke="#005a58"></path><path d="M315 450L182.3 540L355 540Z" fill="#006a5c" stroke="#006a5c"></path><path d="M173.3 392L194.3 474L298 394Z" fill="#70a240" stroke="#70a240"></path><path d="M845.3 244L852.3 156L776.7 195Z" fill="#002c39" stroke="#002c39"></path><path d="M733.7 89L783.7 0L636 0Z" fill="#00101c" stroke="#00101c"></path><path d="M330 0L185.3 95L349 102Z" fill="#003b46" stroke="#003b46"></path><path d="M81.7 275L131.7 322L224.3 235Z" fill="#005a58" stroke="#005a58"></path><path d="M852.3 156L835.3 101L776.7 195Z" fill="#002c39" stroke="#002c39"></path><path d="M95.7 197L224.3 235L211.3 178Z" fill="#005a58" stroke="#005a58"></path><path d="M173.3 392L138.7 447L194.3 474Z" fill="#006a5c" stroke="#006a5c"></path><path d="M889.3 434L877.3 382L724.7 425Z" fill="#2f8856" stroke="#2f8856"></path><path d="M845.3 244L960 178L852.3 156Z" fill="#003b46" stroke="#003b46"></path><path d="M835.3 101L783.7 0L733.7 89Z" fill="#70a240" stroke="#70a240"></path><path d="M131.7 322L138.7 447L173.3 392Z" fill="#002c39" stroke="#002c39"></path><path d="M851.3 540L889.3 434L724.7 425Z" fill="#002c39" stroke="#002c39"></path><path d="M877.3 382L960 269L845.3 244Z" fill="#00101c" stroke="#00101c"></path><path d="M138.7 540L182.3 540L194.3 474Z" fill="#70a240" stroke="#70a240"></path><path d="M194.3 474L182.3 540L315 450Z" fill="#003b46" stroke="#003b46"></path><path d="M185.3 95L95.7 197L211.3 178Z" fill="#002c39" stroke="#002c39"></path><path d="M131.7 322L0 374L138.7 447Z" fill="#4e954c" stroke="#4e954c"></path><path d="M95.7 197L81.7 275L224.3 235Z" fill="#70a240" stroke="#70a240"></path><path d="M730.7 540L851.3 540L724.7 425Z" fill="#00101c" stroke="#00101c"></path><path d="M960 60L830.3 0L835.3 101Z" fill="#2f8856" stroke="#2f8856"></path><path d="M835.3 101L830.3 0L783.7 0Z" fill="#0e795b" stroke="#0e795b"></path><path d="M330 0L176.3 0L185.3 95Z" fill="#003b46" stroke="#003b46"></path><path d="M185.3 95L96.7 90L95.7 197Z" fill="#2f8856" stroke="#2f8856"></path><path d="M0 540L138.7 540L138.7 447Z" fill="#70a240" stroke="#70a240"></path><path d="M138.7 447L138.7 540L194.3 474Z" fill="#0e795b" stroke="#0e795b"></path><path d="M960 378L877.3 382L889.3 434Z" fill="#004a50" stroke="#004a50"></path><path d="M960 378L960 269L877.3 382Z" fill="#005a58" stroke="#005a58"></path><path d="M852.3 156L960 60L835.3 101Z" fill="#003b46" stroke="#003b46"></path><path d="M95.7 197L0 233L81.7 275Z" fill="#0e795b" stroke="#0e795b"></path><path d="M139.7 0L96.7 90L185.3 95Z" fill="#70a240" stroke="#70a240"></path><path d="M960 428L960 378L889.3 434Z" fill="#003b46" stroke="#003b46"></path><path d="M176.3 0L139.7 0L185.3 95Z" fill="#003b46" stroke="#003b46"></path><path d="M960 269L960 178L845.3 244Z" fill="#2f8856" stroke="#2f8856"></path><path d="M960 540L960 428L889.3 434Z" fill="#004a50" stroke="#004a50"></path><path d="M960 178L960 60L852.3 156Z" fill="#2f8856" stroke="#2f8856"></path><path d="M0 162L95.7 197L96.7 90Z" fill="#006a5c" stroke="#006a5c"></path><path d="M0 162L0 233L95.7 197Z" fill="#006a5c" stroke="#006a5c"></path><path d="M81.7 275L0 374L131.7 322Z" fill="#041e2b" stroke="#041e2b"></path><path d="M0 233L0 374L81.7 275Z" fill="#005a58" stroke="#005a58"></path><path d="M851.3 540L960 540L889.3 434Z" fill="#00101c" stroke="#00101c"></path><path d="M0 77L0 162L96.7 90Z" fill="#004a50" stroke="#004a50"></path><path d="M0 374L0 425L138.7 447Z" fill="#70a240" stroke="#70a240"></path><path d="M960 60L960 0L830.3 0Z" fill="#002c39" stroke="#002c39"></path><path d="M0 0L0 77L96.7 90Z" fill="#0e795b" stroke="#0e795b"></path><path d="M0 425L0 540L138.7 447Z" fill="#005a58" stroke="#005a58"></path><path d="M139.7 0L0 0L96.7 90Z" fill="#00101c" stroke="#00101c"></path></g></svg>